<?xml version="1.0" standalone="no"?>
<!DOCTYPE svg PUBLIC "-//W3C//DTD SVG 20010904//EN"
 "http://www.w3.org/TR/2001/REC-SVG-20010904/DTD/svg10.dtd">
<svg version="1.0" xmlns="http://www.w3.org/2000/svg"
 width="260.000000pt" height="260.000000pt" viewBox="0 0 260.000000 260.000000"
 preserveAspectRatio="xMidYMid meet">
<metadata>
Created by potrace 1.11, written by Peter Selinger 2001-2013
</metadata>
<g transform="translate(0.000000,260.000000) scale(0.100000,-0.100000)"
fill="#000000" stroke="none">
<path d="M0 1300 l0 -1300 1300 0 1300 0 0 1300 0 1300 -1300 0 -1300 0 0
-1300z m1245 565 c92 -20 183 -65 247 -124 l52 -48 -21 -27 c-12 -15 -49 -57
-83 -92 l-61 -66 -42 46 c-184 197 -478 63 -495 -225 -13 -224 125 -393 308
-376 69 6 126 34 168 81 31 36 58 108 47 126 -4 6 -60 10 -131 10 l-124 0 0
95 0 95 261 0 261 0 -4 -142 c-3 -142 -3 -144 -40 -219 -70 -144 -198 -239
-368 -275 -354 -75 -680 227 -657 607 11 182 96 347 229 445 126 92 287 124
453 89z m737 -870 c94 -70 82 -210 -22 -262 -55 -28 -82 -29 -136 -2 -108 52
-115 205 -12 270 42 26 131 23 170 -6z"/>
</g>
</svg>
