<svg width="74" height="48" viewBox="0 0 74 48" xmlns="http://www.w3.org/2000/svg" xmlns:xlink="http://www.w3.org/1999/xlink"><title>Group 2</title><defs><rect id="a" x="27.011" width="21.978" height="21.983" rx="3"/><mask id="e" x="0" y="0" width="21.978" height="21.983" fill="#fff"><use xlink:href="#a"/></mask><rect id="b" width="21.978" height="21.983" rx="3"/><mask id="f" x="0" y="0" width="21.978" height="21.983" fill="#fff"><use xlink:href="#b"/></mask><rect id="c" width="21.978" height="21.983" rx="3"/><mask id="g" x="0" y="0" width="21.978" height="21.983" fill="#fff"><use xlink:href="#c"/></mask><rect id="d" width="21.978" height="21.983" rx="3"/><mask id="h" x="0" y="0" width="21.978" height="21.983" fill="#fff"><use xlink:href="#d"/></mask></defs><g transform="translate(-1)" fill="none" fill-rule="evenodd"><use stroke-opacity=".2" stroke="#FFF" mask="url(#e)" stroke-width="1.2" xlink:href="#a"/><path fill-opacity=".2" fill="#FFF" d="M35.68 11.68l2.403-2.402 2.401 2.401z"/><g transform="rotate(-180 24.495 24)"><use stroke="#1FDE91" mask="url(#f)" stroke-width="2" xlink:href="#b"/><path fill="#1FDE91" d="M8.67 11.68l2.402-2.402 2.401 2.401z"/></g><g transform="rotate(-90 24.498 23.5)"><use stroke-opacity=".2" stroke="#FFF" mask="url(#g)" stroke-width="1.2" xlink:href="#c"/><path fill-opacity=".2" fill="#FFF" d="M8.67 11.68l2.402-2.402 2.401 2.401z"/></g><g transform="rotate(90 24.492 50.51)"><use stroke-opacity=".2" stroke="#FFF" mask="url(#h)" stroke-width="1.2" xlink:href="#d"/><path fill-opacity=".2" fill="#FFF" d="M8.67 11.68l2.402-2.402 2.401 2.401z"/></g></g></svg>