<svg width="22" height="22" viewBox="0 0 22 22" xmlns="http://www.w3.org/2000/svg"><title>Page 1</title><path d="M20.253 10.87a13.75 13.75 0 0 0-.359-.064l-.522-.085a13.695 13.695 0 0 0-.688-.093 23.702 23.702 0 0 0-2.714-.158c-.334 0-.685.01-1.053.03-.367.018-.722.051-1.067.1a1.783 1.783 0 0 1-.107-.237 5.369 5.369 0 0 1-.093-.251c-.182-.4-.391-.854-.63-1.36.659-.268 1.286-.576 1.884-.924a14.54 14.54 0 0 0 1.431-.932c.358-.272.698-.56 1.018-.866.32-.305.527-.518.623-.638.095-.119.186-.236.272-.35l.014-.014c1.395 1.7 2.106 3.656 2.134 5.872l-.143-.03zm-1.346 5.208a9.407 9.407 0 0 1-2.65 2.714 40.406 40.406 0 0 0-1.833-6.718c1.9-.296 3.852-.158 5.858.416a9.272 9.272 0 0 1-1.375 3.588zm-7.906 4.318c-2.235 0-4.23-.716-5.988-2.148l.215.157c.334-.736.825-1.442 1.475-2.12.65-.678 1.275-1.224 1.877-1.64a18.337 18.337 0 0 1 1.962-1.174c.707-.368 1.188-.602 1.447-.702.257-.1.463-.18.616-.236l.028-.015h.028c.936 2.454 1.605 4.832 2.006 7.133a9.397 9.397 0 0 1-3.666.745zm-8.767-6.008A9.224 9.224 0 0 1 1.604 11c0-.133.005-.234.015-.3 3.457 0 6.67-.445 9.639-1.333.306.592.559 1.122.76 1.59-.039.02-.1.04-.187.065l-.187.05-.53.186c-.362.134-.837.362-1.424.688-.587.324-1.21.711-1.87 1.16-.658.448-1.34 1.043-2.04 1.783a11.983 11.983 0 0 0-1.77 2.385 9.396 9.396 0 0 1-1.776-2.886zM3.64 5.17A9.259 9.259 0 0 1 6.99 2.507c1.184 1.575 2.349 3.38 3.495 5.413a33.98 33.98 0 0 1-8.68 1.146A9.28 9.28 0 0 1 3.64 5.17zM11 1.604c2.367 0 4.435.783 6.2 2.35l-.178.25c-.072.1-.25.293-.537.58a9.17 9.17 0 0 1-.939.816c-.339.258-.799.551-1.382.881a13.26 13.26 0 0 1-1.862.867C11.206 5.323 10.031 3.5 8.78 1.876A9.45 9.45 0 0 1 11 1.604zm9.524 3.874a10.952 10.952 0 0 0-4.003-4.002C14.837.492 12.996 0 11 0 9.005 0 7.164.492 5.479 1.476a10.944 10.944 0 0 0-4.003 4.002C.492 7.164 0 9.005 0 11s.492 3.836 1.476 5.522a10.949 10.949 0 0 0 4.002 4.002C7.164 21.508 9.005 22 11.001 22c1.995 0 3.836-.492 5.52-1.476a10.95 10.95 0 0 0 4.004-4.002C21.508 14.836 22 12.995 22 11s-.492-3.837-1.475-5.522z" fill="#000" fill-rule="evenodd"/></svg>