<svg width="23" height="22" viewBox="0 0 23 22" xmlns="http://www.w3.org/2000/svg"><title>LinkedIn</title><g fill="#000" fill-rule="evenodd"><path d="M4.825 7.097H0v14.496h4.825zM5.428 2.504C5.397 1.083 4.38 0 2.73 0S0 1.083 0 2.504C0 3.896 1.047 5.01 2.667 5.01h.03c1.683 0 2.73-1.114 2.73-2.506zM22.536 12.912c0-4.453-2.38-6.525-5.555-6.525-2.562 0-3.709 1.407-4.35 2.394V6.728H7.807c.064 1.36 0 14.497 0 14.497h4.826v-8.097c0-.433.031-.865.159-1.175.348-.866 1.142-1.762 2.475-1.762 1.747 0 2.445 1.33 2.445 3.277v7.756h4.825v-8.312z"/></g></svg>