<svg width="26" height="22" viewBox="0 0 26 22" xmlns="http://www.w3.org/2000/svg"><title>Fill 1</title><path d="M26 2.602c-.953.44-1.984.745-3.063.878A5.563 5.563 0 0 0 25.285.404a10.376 10.376 0 0 1-3.396 1.348A5.228 5.228 0 0 0 18.002 0c-2.943 0-5.332 2.488-5.332 5.554a6 6 0 0 0 .136 1.265C8.37 6.586 4.444 4.38 1.81 1.015a5.69 5.69 0 0 0-.724 2.796c0 1.925.945 3.628 2.373 4.618a5.092 5.092 0 0 1-2.411-.694v.068c0 2.693 1.84 4.94 4.275 5.454a5.29 5.29 0 0 1-2.41.092c.682 2.206 2.648 3.808 4.982 3.859a10.45 10.45 0 0 1-6.626 2.371c-.428 0-.849-.025-1.269-.073A14.66 14.66 0 0 0 8.18 22c9.805 0 15.17-8.463 15.17-15.8l-.017-.72A11.002 11.002 0 0 0 26 2.602" fill="#FFF" fill-rule="evenodd"/></svg>