<?xml version="1.0" encoding="UTF-8" standalone="no"?>
<svg width="22px" height="22px" viewBox="0 0 22 22" version="1.1" xmlns="http://www.w3.org/2000/svg" xmlns:xlink="http://www.w3.org/1999/xlink">
    <!-- Generator: Sketch 40.3 (33839) - http://www.bohemiancoding.com/sketch -->
    <title>Page 1</title>
    <desc>Created with Sketch.</desc>
    <defs></defs>
    <g id="Page-1" stroke="none" stroke-width="1" fill="none" fill-rule="evenodd">
        <g id="1-Home" transform="translate(-42.000000, -34.000000)" fill="#000">
            <path d="M62.2531939,44.8707873 C62.1571624,44.8518888 62.0378372,44.8305731 61.8943394,44.8064007 C61.7519403,44.783327 61.5776772,44.7541003 61.3715501,44.7206984 C61.1665218,44.6870767 60.9373208,44.6563118 60.6839471,44.6279641 C60.4316722,44.5996164 60.1613776,44.5730267 59.8746017,44.5488543 C59.5887048,44.5249016 59.2830302,44.5060032 58.9586767,44.4914997 C58.6332245,44.4776555 58.3044759,44.4699642 57.9697941,44.4699642 C57.6357716,44.4699642 57.2848281,44.4802925 56.9174033,44.4991909 C56.5499785,44.5180894 56.1946401,44.5514913 55.8502892,44.5996164 C55.8219412,44.5514913 55.7859019,44.4726012 55.7430504,44.3627265 C55.7001988,44.2528517 55.6692138,44.1695667 55.6503151,44.1119923 C55.4683608,43.7111693 55.2589374,43.2578261 55.0194081,42.7515233 C55.6786631,42.4836486 56.3062739,42.1762191 56.903559,41.8276964 C57.5001848,41.4793935 57.9774854,41.168448 58.3354609,40.8963981 C58.6934364,40.6243482 59.0325133,40.3358172 59.3526915,40.0303654 C59.6728697,39.7246938 59.879656,39.5117566 59.9759072,39.3924326 C60.0710597,39.2731087 60.1620369,39.1564217 60.2479598,39.0414927 L60.2624634,39.0276485 C61.6565681,40.7274108 62.3683438,42.6844997 62.396472,44.900014 L62.2531939,44.8707873 Z M60.9072148,50.0777514 C60.1998342,51.1705656 59.3166522,52.0761532 58.2572293,52.792097 C57.8649726,50.5954812 57.2547222,48.3566734 56.4238411,46.0743552 C58.3233746,45.7781329 60.2763078,45.9163554 62.2815419,46.4896818 C62.0712395,47.787742 61.6137165,48.9842779 60.9072148,50.0777514 L60.9072148,50.0777514 Z M53.0005494,54.395609 C50.7661143,54.395609 48.7703295,53.6796652 47.0129753,52.2477775 L47.2276727,52.4048984 C47.5623545,51.6693969 48.0534995,50.9629023 48.7033053,50.2856344 C49.353111,49.6074875 49.9780848,49.0607507 50.5797649,48.6452045 C51.181445,48.2296582 51.8356457,47.8382844 52.5421474,47.4708632 C53.248649,47.1025631 53.730125,46.8691891 53.9885529,46.7687636 C54.2461019,46.6683381 54.4520092,46.5892283 54.6047366,46.5327527 L54.6330846,46.5180294 L54.6614326,46.5180294 C55.5971352,48.9721917 56.2658396,51.3501009 56.6666667,53.6513175 C55.4828644,54.1475118 54.2606055,54.395609 53.0005494,54.395609 L53.0005494,54.395609 Z M44.2344351,48.3876581 C43.8147094,47.3137423 43.604407,46.18423 43.604407,45.0004395 C43.604407,44.8666121 43.6094613,44.7661865 43.6189106,44.699163 C47.0758243,44.699163 50.2888136,44.255269 53.2578786,43.3668218 C53.5635532,43.9592664 53.8167071,44.4888627 54.0177799,44.9575883 C53.9791036,44.9764868 53.9171336,44.9978025 53.8314305,45.0219749 C53.7446286,45.0450486 53.6828783,45.0621891 53.6442021,45.0716383 L53.1146005,45.2579859 C52.7515707,45.3918133 52.2769071,45.620133 51.6897306,45.945582 C51.1025541,46.2699323 50.4793383,46.6571309 49.8200833,47.1052001 C49.1617073,47.5541483 48.4809166,48.1490101 47.779689,48.8889066 C47.0773626,49.6288032 46.4877688,50.4238568 46.0104682,51.2736281 C45.2463916,50.4238568 44.6541608,49.4615738 44.2344351,48.3876581 L44.2344351,48.3876581 Z M45.6388681,39.1702659 C46.5547931,38.0148231 47.6722304,37.1272549 48.9900812,36.5066824 C50.1736638,38.0818467 51.3385674,39.886869 52.4845724,41.9204307 C49.581433,42.6844997 46.6886219,43.0664243 43.8052601,43.0664243 C44.1107149,41.6244282 44.7220641,40.3257087 45.6388681,39.1702659 L45.6388681,39.1702659 Z M53.0005494,35.604391 C55.3679342,35.604391 57.4357975,36.3873584 59.2015023,37.9530735 L59.0230639,38.2035879 C58.9509854,38.3040134 58.7723273,38.4971732 58.4857711,38.7839463 C58.1998741,39.0698404 57.8865082,39.3427692 57.5474314,39.6003156 C57.2083546,39.857862 56.7481945,40.1514474 56.1654131,40.4810716 C55.5826316,40.8106958 54.9627121,41.0998861 54.3034571,41.3479833 C53.2055777,39.3229918 52.0312247,37.4997303 50.7797389,35.8764409 C51.5343662,35.6944883 52.2742701,35.604391 53.0005494,35.604391 L53.0005494,35.604391 Z M62.5252465,39.4783547 C61.5416379,37.7933156 60.2075255,36.4594362 58.5218104,35.4756178 C56.8367545,34.4920191 54.9963341,34 53.0005494,34 C51.0047646,34 49.1643443,34.4920191 47.4792884,35.4756178 C45.7933535,36.4585572 44.4592411,37.7933156 43.4756325,39.4783547 C42.4918043,41.1642727 42,43.0046747 42,45.0004395 C42,46.9953253 42.4918043,48.8357273 43.4756325,50.5216453 C44.4592411,52.2066844 45.7933535,53.5414428 47.4784094,54.5243822 C49.1643443,55.5079809 51.0047646,56 53.0005494,56 C54.9963341,56 56.8367545,55.5079809 58.5218104,54.5243822 C60.2068662,53.5414428 61.5416379,52.2066844 62.5252465,50.5216453 C63.5081957,48.8357273 64,46.9953253 64,45.0004395 C64,43.0046747 63.5081957,41.1633937 62.5252465,39.4783547 L62.5252465,39.4783547 Z" id="Page-1"></path>
        </g>
    </g>
</svg>
