<?xml version="1.0" encoding="UTF-8" standalone="no"?>
<svg width="23px" height="22px" viewBox="0 0 23 22" version="1.1" xmlns="http://www.w3.org/2000/svg" xmlns:xlink="http://www.w3.org/1999/xlink">
    <!-- Generator: Sketch 40.3 (33839) - http://www.bohemiancoding.com/sketch -->
    <title>LinkedIn</title>
    <desc>Created with Sketch.</desc>
    <defs></defs>
    <g id="Page-1" stroke="none" stroke-width="1" fill="none" fill-rule="evenodd">
        <g id="1-Home" transform="translate(-41.000000, -144.000000)" fill="#000">
            <g id="LinkedIn" transform="translate(41.000000, 144.000000)">
                <polygon id="Path" points="4.82485267 7.09677419 0 7.09677419 0 21.5934537 4.82485267 21.5934537"></polygon>
                <path d="M5.42793517,2.50400603 C5.39661997,1.08261579 4.38017689,0 2.72962518,0 C1.07907347,0 0,1.08261579 0,2.50400603 C0,3.89595435 1.04718015,5.00974393 2.66699479,5.00974393 L2.69782822,5.00974393 C4.38017689,5.00974393 5.42793517,3.89595435 5.42793517,2.50400603 Z" id="Path"></path>
                <path d="M22.5360599,12.9122334 C22.5360599,8.45948048 20.1558159,6.38709677 16.9808405,6.38709677 C14.4191611,6.38709677 13.2722541,7.79415092 12.6318824,8.7812248 L12.6318824,6.72789175 L7.80645161,6.72789175 C7.87004555,8.08818521 7.80645161,21.2245713 7.80645161,21.2245713 L12.6318824,21.2245713 L12.6318824,13.1284294 C12.6318824,12.6951714 12.6631976,12.2629718 12.7907709,11.9527733 C13.1394777,11.0872195 13.9334383,10.1910692 15.2664058,10.1910692 C17.0130229,10.1910692 17.7112072,11.5203813 17.7112072,13.4684547 L17.7112072,21.2241864 L22.5358672,21.2241864 L22.5360599,12.9122334 Z" id="Path"></path>
            </g>
        </g>
    </g>
</svg>
