<?xml version="1.0" encoding="UTF-8" standalone="no"?>
<svg width="26px" height="22px" viewBox="0 0 26 22" version="1.1" xmlns="http://www.w3.org/2000/svg" xmlns:xlink="http://www.w3.org/1999/xlink">
    <!-- Generator: Sketch 40.3 (33839) - http://www.bohemiancoding.com/sketch -->
    <title>Fill 1</title>
    <desc>Created with Sketch.</desc>
    <defs></defs>
    <g id="Page-1" stroke="none" stroke-width="1" fill="none" fill-rule="evenodd">
        <g id="1-Home" transform="translate(-40.000000, -89.000000)" fill="#000">
            <path d="M66,91.60242 C65.0472708,92.0424564 64.0155679,92.3470659 62.9371017,92.4804715 C64.0400167,91.7928262 64.8807857,90.703145 65.285162,89.4040573 C64.2532651,90.040968 63.1117363,90.5042493 61.8890995,90.7518582 C60.9222055,89.6771345 59.5328895,89 58.0015374,89 C55.0585549,89 52.6699404,91.4882168 52.6699404,94.5539181 C52.6699404,94.9919332 52.7186441,95.4129694 52.8059615,95.8192501 C48.3700464,95.5863967 44.4438706,93.3797466 41.8096034,90.0154997 C41.3485678,90.8343271 41.0864218,91.7928262 41.0864218,92.8105493 C41.0864218,94.736037 42.0310014,96.4391819 43.458737,97.4292133 C42.5855635,97.4059683 41.7688553,97.1500721 41.0480021,96.735302 L41.0480021,96.8030154 C41.0480021,99.4963938 42.8880696,101.74347 45.3234473,102.257486 C44.8785169,102.380381 44.4033166,102.445871 43.9199666,102.445871 C43.5786528,102.445871 43.2456826,102.414136 42.9125185,102.348646 C43.594952,104.555296 45.5609505,106.156972 47.894846,106.207707 C46.0687493,107.695179 43.7676463,108.579497 41.2692061,108.579497 C40.840769,108.579497 40.4202875,108.55423 40,108.505517 C42.3639715,110.083746 45.1649178,111 48.1791125,111 C57.9852381,111 63.3494336,102.536829 63.3494336,95.1993183 L63.3331343,94.4799386 C64.3811365,93.6948668 65.285162,92.719591 66,91.60242" id="Fill-1"></path>
        </g>
    </g>
</svg>
